#!OML:ASF H:\Swim 2\Project 1\Capture day 1\Session 1\male.ASF
:FULLY-SPECIFIED
:DEGREES
1881
root 3.57833 14.7481 12.2808 -55.2743 -78.5206 154.582
lowerback -14.2746 1.75236 6.85139
upperback -9.42378 1.05187 -5.09029
thorax -1.84377 -0.183581 -9.20988
lowerneck -11.0413 0.527855 -4.79685
upperneck 23.7099 -0.148443 5.78767
head 9.24956 -0.0123513 2.77054
rclavicle -1.19271e-014 -4.1546e-014
rhumerus 82.6407 -7.67313 -28.1459
rradius 34.0874
rwrist -34.3578
rhand -41.545 4.46269
rfingers 7.12502
rthumb -14.4567 -25.0137
lclavicle -1.19271e-014 -4.1546e-014
lhumerus 442.465 13.5202 -352.646
lradius 35.6763
lwrist 40.0362
lhand -42.4713 -19.0862
lfingers 7.12502
lthumb -15.3492 370.324
rfemur -59.3948 -0.964338 25.7189
rtibia 74.1052
rfoot 24.923 7.17673
rtoes 29.4629
lfemur -62.539 13.1038 -30.8046
ltibia 83.8746
lfoot 31.4291 -1.27881
ltoes 10.0368
1882
root 3.55118 14.7551 12.2903 -55.6098 -78.4481 155
lowerback -14.2799 1.7508 6.83335
upperback -9.42024 1.05083 -5.11293
thorax -1.83722 -0.183908 -9.2245
lowerneck -10.8515 0.448589 -4.81452
upperneck 22.988 -0.202698 5.78933
head 8.96726 -0.0311453 2.75212
rclavicle 9.14409e-014 1.09133e-013
rhumerus 82.6918 -7.80848 -27.8504
rradius 34.3312
rwrist -34.5194
rhand -42.1604 4.46753
rfingers 7.12502
rthumb -15.0497 -24.9655
lclavicle 9.14409e-014 1.09133e-013
lhumerus 442.186 13.8548 -352.714
lradius 35.7717
lwrist 39.3982
lhand -42.2477 -20.0546
lfingers 7.12502
lthumb -15.1338 369.372
rfemur -59.5521 -0.782399 25.5564
rtibia 74.2849
rfoot 24.6937 7.27179
rtoes 29.6532
lfemur -62.5361 12.9944 -30.8481
ltibia 83.7375
lfoot 31.627 -1.96268
ltoes 9.46577
1883
root 3.52272 14.7584 12.3003 -56.0072 -78.3917 155.499
lowerback -14.3082 1.75796 6.82375
upperback -9.42753 1.05811 -5.14033
thorax -1.82846 -0.181477 -9.24837
lowerneck -10.6402 0.365812 -4.77676
upperneck 22.2282 -0.265052 5.75892
head 8.67177 -0.052882 2.71246
rclavicle 1.19271e-014 -7.95139e-015
rhumerus 82.6559 -7.96824 -27.4742
rradius 34.6363
rwrist -34.8149
rhand -42.7666 4.4719
rfingers 7.12502
rthumb -15.6336 -24.9164
lclavicle 1.19271e-014 -7.95139e-015
lhumerus 441.937 14.1514 -352.74
lradius 35.9149
lwrist 38.8913
lhand -42.0746 -21.0393
lfingers 7.12502
lthumb -14.967 368.4
rfemur -59.6558 -0.578085 25.4041
rtibia 74.2624
rfoot 24.5036 7.45599
rtoes 29.6515
lfemur -62.4853 12.8313 -30.8474
ltibia 83.4416
lfoot 31.7891 -2.5781
ltoes 9.15181
1884
root 3.4938 14.7587 12.3108 -56.3663 -78.3541 155.989
lowerback -14.3614 1.77406 6.83048
upperback -9.45052 1.07266 -5.17446
thorax -1.82205 -0.177881 -9.28855
lowerneck -10.3999 0.282405 -4.6845
upperneck 21.4279 -0.334437 5.7092
head 8.36098 -0.0763993 2.65659
rclavicle -8.74653e-014 -1.00983e-013
rhumerus 82.5125 -8.15839 -27.0144
rradius 35.0218
rwrist -35.2591
rhand -43.3677 4.44597
rfingers 7.12502
rthumb -16.2125 -24.8961
lclavicle -8.74653e-014 -1.00983e-013
lhumerus 441.729 14.4024 -352.756
lradius 36.0783
lwrist 38.4546
lhand -42.0333 -22.1536
lfingers 7.12502
lthumb -14.9273 367.289
rfemur -59.7234 -0.361342 25.2779
rtibia 74.0292
rfoot 24.3666 7.70192
rtoes 29.4634
lfemur -62.4153 12.6059 -30.7943
ltibia 82.9946
lfoot 31.9162 -3.04495
ltoes 9.18042
1885
root 3.46522 14.7566 12.3214 -56.6146 -78.3391 156.39
lowerback -14.4288 1.79396 6.85258
upperback -9.48758 1.08861 -5.20494
thorax -1.82327 -0.175742 -9.33372
lowerneck -10.1314 0.202001 -4.5651
upperneck 20.5906 -0.40292 5.65148
head 8.03588 -0.099471 2.59423
rclavicle -7.15625e-015 -1.03368e-014
rhumerus 82.3 -8.36031 -26.5264
rradius 35.4538
rwrist -35.7995
rhand -43.9231 4.4315
rfingers 7.12502
rthumb -16.7472 -24.8662
lclavicle -7.15625e-015 -1.03368e-014
lhumerus 441.569 14.6116 -352.718
lradius 36.2478
lwrist 38.0517
lhand -42.0474 -23.3766
lfingers 7.12502
lthumb -14.9408 366.065
rfemur -59.7567 -0.142622 25.1943
rtibia 73.5827
rfoot 24.2878 7.95922
rtoes 29.1456
lfemur -62.3381 12.3189 -30.6792
ltibia 82.4033
lfoot 31.9917 -3.34574
ltoes 9.48056
1886
root 3.43747 14.7525 12.3321 -56.7142 -78.3523 156.66
lowerback -14.505 1.81554 6.89258
upperback -9.53693 1.10336 -5.22564
thorax -1.83347 -0.17617 -9.37888
lowerneck -9.83299 0.121817 -4.45071
upperneck 19.7168 -0.473425 5.61028
head 7.69675 -0.123899 2.53895
rclavicle -3.02153e-014 -5.12864e-014
rhumerus 82.0497 -8.56398 -26.0712
rradius 35.8901
rwrist -36.4133
rhand -44.3846 4.70749
rfingers 7.12502
rthumb -17.1914 -24.552
lclavicle -3.02153e-014 -5.12864e-014
lhumerus 441.47 14.7842 -352.613
lradius 36.3921
lwrist 37.6427
lhand -42.0768 -24.6438
lfingers 7.12502
lthumb -14.9691 364.795
rfemur -59.7558 0.0679844 25.1682
rtibia 72.9242
rfoot 24.265 8.19582
rtoes 28.7201
lfemur -62.2595 11.9763 -30.494
ltibia 81.6726
lfoot 31.9984 -3.43668
ltoes 10.0043
1887
root 3.4101 14.7462 12.3433 -56.6969 -78.368 156.82
lowerback -14.5872 1.83165 6.93106
upperback -9.59298 1.10978 -5.23622
thorax -1.84965 -0.181462 -9.41308
lowerneck -9.51134 0.0453158 -4.38462
upperneck 18.8196 -0.538847 5.60994
head 7.34898 -0.14741 2.50693
rclavicle -1.74931e-014 -1.19271e-014
rhumerus 81.8394 -8.71949 -25.7375
rradius 36.2741
rwrist -36.9452
rhand -44.7728 5.17904
rfingers 7.12502
rthumb -17.565 -24.0475
lclavicle -1.74931e-014 -1.19271e-014
lhumerus 441.414 14.9239 -352.433
lradius 36.4888
lwrist 37.1779
lhand -42.0761 -25.9177
lfingers 7.12502
lthumb -14.9685 363.521
rfemur -59.7123 0.248415 25.1727
rtibia 72.0593
rfoot 24.2864 8.38669
rtoes 28.2154
lfemur -62.1603 11.5744 -30.2731
ltibia 80.797
lfoot 31.9091 -3.36596
ltoes 10.5076
1888
root 3.38271 14.7375 12.3546 -56.6467 -78.3888 156.952
lowerback -14.679 1.84367 6.95621
upperback -9.65294 1.1112 -5.23061
thorax -1.86612 -0.188618 -9.42199
lowerneck -9.16489 -0.0249573 -4.37749
upperneck 17.906 -0.59254 5.64031
head 6.99443 -0.168392 2.49688
rclavicle 3.18055e-015 3.83654e-014
rhumerus 81.7115 -8.80634 -25.5782
rradius 36.5726
rwrist -37.3417
rhand -45.0178 5.93288
rfingers 7.12502
rthumb -17.8008 -23.2724
lclavicle 3.18055e-015 3.83654e-014
lhumerus 441.39 15.041 -352.177
lradius 36.555
lwrist 36.6887
lhand -41.9986 -26.9131
lfingers 7.12502
lthumb -14.8938 362.531
rfemur -59.6206 0.409628 25.2034
rtibia 70.9924
rfoot 24.3437 8.50347
rtoes 27.7062
lfemur -62.0347 11.1448 -30.0279
ltibia 79.7753
lfoot 31.7023 -3.18849
ltoes 10.7781
1889
root 3.35485 14.7261 12.3662 -56.5863 -78.3986 157.071
lowerback -14.7763 1.85143 6.96099
upperback -9.71455 1.10859 -5.21656
thorax -1.88222 -0.196839 -9.40995
lowerneck -8.79674 -0.0867684 -4.43032
upperneck 16.988 -0.633756 5.70821
head 6.6375 -0.185741 2.51103
rclavicle -6.52014e-014 -8.38871e-014
rhumerus 81.67 -8.8146 -25.5767
rradius 36.7943
rwrist -37.5162
rhand -45.1853 6.60947
rfingers 7.12502
rthumb -17.9619 -22.5811
lclavicle -6.52014e-014 -8.38871e-014
lhumerus 441.386 15.133 -351.889
lradius 36.5882
lwrist 36.2038
lhand -41.9087 -27.6143
lfingers 7.12502
lthumb -14.8072 361.837
rfemur -59.4749 0.539302 25.2433
rtibia 69.7312
rfoot 24.4278 8.53745
rtoes 27.1941
lfemur -61.8698 10.684 -29.7776
ltibia 78.6053
lfoot 31.4021 -2.89788
ltoes 10.9309
1890
root 3.32569 14.7115 12.3781 -56.6105 -78.3838 157.265
lowerback -14.8829 1.86309 6.93841
upperback -9.77274 1.11408 -5.21087
thorax -1.88783 -0.199171 -9.38984
lowerneck -8.42077 -0.148246 -4.52609
upperneck 16.0841 -0.677109 5.81482
head 6.28719 -0.204921 2.54558
rclavicle -8.5875e-014 -3.75703e-014
rhumerus 81.6494 -8.79822 -25.6523
rradius 36.9879
rwrist -37.5958
rhand -45.2465 7.26203
rfingers 7.12502
rthumb -18.0208 -21.9231
lclavicle -8.5875e-014 -3.75703e-014
lhumerus 441.41 15.2009 -351.597
lradius 36.5798
lwrist 35.7852
lhand -41.76 -28.1355
lfingers 7.12502
lthumb -14.664 361.326
rfemur -59.2652 0.641381 25.2667
rtibia 68.2849
rfoot 24.5261 8.49711
rtoes 26.6836
lfemur -61.6484 10.2065 -29.5508
ltibia 77.2885
lfoot 31.0166 -2.55057
ltoes 10.9682
1891
root 3.29557 14.6942 12.3899 -56.7081 -78.3593 157.521
lowerback -14.9969 1.88384 6.89923
upperback -9.82577 1.13408 -5.21301
thorax -1.88076 -0.192379 -9.36647
lowerneck -8.05586 -0.212334 -4.62848
upperneck 15.2191 -0.727589 5.93139
head 5.95451 -0.228098 2.585
rclavicle -8.34896e-015 -1.27222e-013
rhumerus 81.5997 -8.78449 -25.703
rradius 37.2057
rwrist -37.5894
rhand -45.2817 7.52035
rfingers 7.12502
rthumb -18.0547 -21.6617
lclavicle -8.34896e-015 -1.27222e-013
lhumerus 441.463 15.2446 -351.326
lradius 36.5475
lwrist 35.5226
lhand -41.6192 -28.4788
lfingers 7.12502
lthumb -14.5283 360.992
rfemur -58.9923 0.726697 25.289
rtibia 66.6645
rfoot 24.6234 8.39326
rtoes 26.1764
lfemur -61.3815 9.73095 -29.3373
ltibia 75.8386
lfoot 30.5707 -2.2179
ltoes 10.9025
1892
root 3.26513 14.6747 12.4015 -56.7968 -78.3412 157.762
lowerback -15.123 1.91822 6.87257
upperback -9.87568 1.17089 -5.22261
thorax -1.8605 -0.176793 -9.35635
lowerneck -7.7175 -0.281755 -4.72549
upperneck 14.4165 -0.788889 6.04489
head 5.64906 -0.257083 2.62315
rclavicle 1.15295e-014 4.01545e-014
rhumerus 81.5019 -8.79484 -25.6988
rradius 37.45
rwrist -37.55
rhand -45.3086 7.45332
rfingers 7.12502
rthumb -18.0806 -21.7263
lclavicle 1.15295e-014 4.01545e-014
lhumerus 441.534 15.2617 -351.11
lradius 36.4933
lwrist 35.4058
lhand -41.5283 -28.7379
lfingers 7.12502
lthumb -14.4407 360.74
rfemur -58.6724 0.800976 25.3281
rtibia 64.883
rfoot 24.7087 8.22515
rtoes 25.7026
lfemur -61.0999 9.26003 -29.125
ltibia 74.2762
lfoot 30.0963 -1.96103
ltoes 10.7609
1893
root 3.23489 14.6537 12.4126 -56.8229 -78.3347 157.938
lowerback -15.2641 1.96371 6.86314
upperback -9.9207 1.22042 -5.23407
thorax -1.82449 -0.154352 -9.35651
lowerneck -7.42388 -0.354702 -4.80868
upperneck 13.6981 -0.85689 6.13507
head 5.37982 -0.290402 2.65279
rclavicle 3.97569e-016 -1.98785e-016
rhumerus 81.3639 -8.82988 -25.6186
rradius 37.7128
rwrist -37.4762
rhand -45.3719 6.99012
rfingers 7.12502
rthumb -18.1415 -22.1839
lclavicle 3.97569e-016 -1.98785e-016
lhumerus 441.616 15.2569 -350.951
lradius 36.4255
lwrist 35.4494
lhand -41.469 -28.9863
lfingers 7.12502
lthumb -14.3835 360.495
rfemur -58.3154 0.862591 25.393
rtibia 62.9565
rfoot 24.7609 8.00787
rtoes 25.2499
lfemur -60.8197 8.79754 -28.9071
ltibia 72.6202
lfoot 29.616 -1.77026
ltoes 10.6288
1894
root 3.20433 14.6317 12.4229 -56.7886 -78.3428 158.041
lowerback -15.4193 2.01644 6.87288
upperback -9.9569 1.27735 -5.24261
thorax -1.77 -0.127317 -9.36341
lowerneck -7.18405 -0.425829 -4.88711
upperneck 13.0762 -0.923826 6.20351
head 5.151 -0.324246 2.67652
rclavicle -4.6118e-014 -9.97899e-014
rhumerus 81.1869 -8.8972 -25.4562
rradius 37.981
rwrist -37.4631
rhand -45.4547 6.49114
rfingers 7.12502
rthumb -18.2212 -22.6754
lclavicle -4.6118e-014 -9.97899e-014
lhumerus 441.692 15.2395 -350.861
lradius 36.3627
lwrist 35.6487
lhand -41.443 -29.1882
lfingers 7.12502
lthumb -14.3585 360.295
rfemur -57.915 0.908212 25.4877
rtibia 60.9013
rfoot 24.766 7.77632
rtoes 24.7365
lfemur -60.5384 8.35676 -28.6825
ltibia 70.8883
lfoot 29.1422 -1.60584
ltoes 10.5591
1895
root 3.17262 14.6088 12.4331 -56.6794 -78.3505 158.046
lowerback -15.5906 2.06701 6.89973
upperback -9.97834 1.32891 -5.24822
thorax -1.69227 -0.101723 -9.37763
lowerneck -7.00083 -0.484048 -4.95153
upperneck 12.5628 -0.975013 6.23797
head 4.96516 -0.351517 2.68983
rclavicle -7.196e-014 -9.76033e-014
rhumerus 81.0166 -8.96468 -25.2631
rradius 38.2211
rwrist -37.472
rhand -45.5667 5.96282
rfingers 7.12502
rthumb -18.3289 -23.1936
lclavicle -7.196e-014 -9.76033e-014
lhumerus 441.747 15.2162 -350.848
lradius 36.3036
lwrist 35.9511
lhand -41.4243 -29.346
lfingers 7.12502
lthumb -14.3405 360.139
rfemur -57.4618 0.912922 25.5991
rtibia 58.7393
rfoot 24.725 7.57675
rtoes 24.0403
lfemur -60.2389 7.92722 -28.4651
ltibia 69.0963
lfoot 28.688 -1.42823
ltoes 10.6018
